<?xml version="1.0" encoding="utf-8"?>
<!-- Generator: Adobe Illustrator 18.1.1, SVG Export Plug-In . SVG Version: 6.00 Build 0)  -->
<svg version="1.1" id="Layer_1" xmlns="http://www.w3.org/2000/svg" xmlns:xlink="http://www.w3.org/1999/xlink" x="0px" y="0px"
	 viewBox="0 0 300 107.7" enable-background="new 0 0 300 107.7" xml:space="preserve">
<g>
	<linearGradient id="SVGID_1_" gradientUnits="userSpaceOnUse" x1="-45.8739" y1="67.5523" x2="393.2349" y2="67.5523">
		<stop  offset="0" style="stop-color:#FFFCE8"/>
		<stop  offset="0.1517" style="stop-color:#CF9A2A"/>
		<stop  offset="0.2528" style="stop-color:#FFFDE9"/>
		<stop  offset="0.2978" style="stop-color:#DEBD74"/>
		<stop  offset="0.3596" style="stop-color:#F2D98A"/>
		<stop  offset="0.4157" style="stop-color:#D8A63F"/>
		<stop  offset="0.5072" style="stop-color:#FFDD91"/>
		<stop  offset="0.5891" style="stop-color:#FFFACB"/>
		<stop  offset="0.788" style="stop-color:#D8A128"/>
		<stop  offset="0.9437" style="stop-color:#E6E3BB"/>
		<stop  offset="1" style="stop-color:#FFF0C6"/>
	</linearGradient>
	<path fill="url(#SVGID_1_)" d="M69.7,72.3c0.1,0.7,0.9,1,1.7,0.8c2.7-0.5,5.7-0.8,8.7-0.9l-5.4,12.5h6l5.4-12.4
		c5.6-0.3,10.1,0,12.4,0.7l5.1,11.7h6L94.6,50.4h-5.1l-8,18.5c-3.6,0.3-7.3,0.9-10.6,1.8C70.2,70.9,69.6,71.5,69.7,72.3z M87.7,68.5
		l4.4-10.4l4.4,10.4C94.4,68.4,91.3,68.4,87.7,68.5z"/>
	<linearGradient id="SVGID_2_" gradientUnits="userSpaceOnUse" x1="-45.8739" y1="67.5523" x2="393.2349" y2="67.5523">
		<stop  offset="0" style="stop-color:#FFFCE8"/>
		<stop  offset="0.1517" style="stop-color:#CF9A2A"/>
		<stop  offset="0.2528" style="stop-color:#FFFDE9"/>
		<stop  offset="0.2978" style="stop-color:#DEBD74"/>
		<stop  offset="0.3596" style="stop-color:#F2D98A"/>
		<stop  offset="0.4157" style="stop-color:#D8A63F"/>
		<stop  offset="0.5072" style="stop-color:#FFDD91"/>
		<stop  offset="0.5891" style="stop-color:#FFFACB"/>
		<stop  offset="0.788" style="stop-color:#D8A128"/>
		<stop  offset="0.9437" style="stop-color:#E6E3BB"/>
		<stop  offset="1" style="stop-color:#FFF0C6"/>
	</linearGradient>
	<path fill="url(#SVGID_2_)" d="M155.2,50.4h-5.1l-14.7,33.9l-9-11.8c4.9-1.1,8.6-5.4,8.6-10.5c0-4.3-2.1-7.9-5.6-9.9
		c-3-1.7-6.7-1.7-9.7-1.7h-8.8v34.3h5.5V73.1h0l0,0h3.7l8.7,11.6h6.4h0.5h5.5l4.7-10.7h13.5l4.7,10.7h6L155.2,50.4z M120.5,67.9
		l-4.1,0V55.6h3.9c2.5,0,4.8,0,6.6,1.3c1.5,1,2.6,3,2.6,4.8c0,2.5-1.3,4.5-3.5,5.5C124.4,67.9,122.4,67.9,120.5,67.9z M148.1,68.8
		l4.5-10.6l4.5,10.6H148.1z"/>
	<linearGradient id="SVGID_3_" gradientUnits="userSpaceOnUse" x1="-45.8739" y1="67.5523" x2="393.2349" y2="67.5523">
		<stop  offset="0" style="stop-color:#FFFCE8"/>
		<stop  offset="0.1517" style="stop-color:#CF9A2A"/>
		<stop  offset="0.2528" style="stop-color:#FFFDE9"/>
		<stop  offset="0.2978" style="stop-color:#DEBD74"/>
		<stop  offset="0.3596" style="stop-color:#F2D98A"/>
		<stop  offset="0.4157" style="stop-color:#D8A63F"/>
		<stop  offset="0.5072" style="stop-color:#FFDD91"/>
		<stop  offset="0.5891" style="stop-color:#FFFACB"/>
		<stop  offset="0.788" style="stop-color:#D8A128"/>
		<stop  offset="0.9437" style="stop-color:#E6E3BB"/>
		<stop  offset="1" style="stop-color:#FFF0C6"/>
	</linearGradient>
	<polygon fill="url(#SVGID_3_)" points="173.1,84.7 178.6,84.7 178.6,55.6 185.9,55.6 185.9,50.4 165,50.4 165,55.6 173.1,55.6 	"/>
	<linearGradient id="SVGID_4_" gradientUnits="userSpaceOnUse" x1="-45.8739" y1="67.5744" x2="393.2349" y2="67.5744">
		<stop  offset="0" style="stop-color:#FFFCE8"/>
		<stop  offset="0.1517" style="stop-color:#CF9A2A"/>
		<stop  offset="0.2528" style="stop-color:#FFFDE9"/>
		<stop  offset="0.2978" style="stop-color:#DEBD74"/>
		<stop  offset="0.3596" style="stop-color:#F2D98A"/>
		<stop  offset="0.4157" style="stop-color:#D8A63F"/>
		<stop  offset="0.5072" style="stop-color:#FFDD91"/>
		<stop  offset="0.5891" style="stop-color:#FFFACB"/>
		<stop  offset="0.788" style="stop-color:#D8A128"/>
		<stop  offset="0.9437" style="stop-color:#E6E3BB"/>
		<stop  offset="1" style="stop-color:#FFF0C6"/>
	</linearGradient>
	<path fill="url(#SVGID_4_)" d="M202.7,49.9c-10,0-18.2,8-18.2,17.9c0,9.5,8.3,17.6,18.2,17.6c10.1,0,18.2-8,18.2-17.8
		C221,57.8,212.8,49.9,202.7,49.9z M202.8,79.9c-6.9,0-12.7-5.6-12.7-12.2c0-6.9,5.7-12.5,12.7-12.5c6.9,0,12.7,5.6,12.7,12.2
		C215.4,74.3,209.7,79.9,202.8,79.9z"/>
	<linearGradient id="SVGID_5_" gradientUnits="userSpaceOnUse" x1="-45.8739" y1="67.5744" x2="393.2349" y2="67.5744">
		<stop  offset="0" style="stop-color:#FFFCE8"/>
		<stop  offset="0.1517" style="stop-color:#CF9A2A"/>
		<stop  offset="0.2528" style="stop-color:#FFFDE9"/>
		<stop  offset="0.2978" style="stop-color:#DEBD74"/>
		<stop  offset="0.3596" style="stop-color:#F2D98A"/>
		<stop  offset="0.4157" style="stop-color:#D8A63F"/>
		<stop  offset="0.5072" style="stop-color:#FFDD91"/>
		<stop  offset="0.5891" style="stop-color:#FFFACB"/>
		<stop  offset="0.788" style="stop-color:#D8A128"/>
		<stop  offset="0.9437" style="stop-color:#E6E3BB"/>
		<stop  offset="1" style="stop-color:#FFF0C6"/>
	</linearGradient>
	<path fill="url(#SVGID_5_)" d="M242.2,85.3c9.6,0,17.6-7.2,18.2-16.4l0.1-1.2h-24.3v5.2h17.5c-1.9,4.2-6.5,7.1-11.4,7.1
		c-7.3,0-13-5.5-13-12.4c0-3.2,1.6-6.7,4.1-8.9c2.3-2.1,5.5-3.3,8.8-3.3c4.3,0,8.5,2.2,10.5,5.4l0.3,0.6h5.9l-0.5-1.5
		c-2.1-6.4-9.9-9.8-16.2-9.8c-5.1,0-9.6,1.8-13.1,5.2c-3.3,3.3-5.3,7.9-5.3,12.3C223.8,77.3,232.1,85.3,242.2,85.3z"/>
	<linearGradient id="SVGID_6_" gradientUnits="userSpaceOnUse" x1="-45.8739" y1="67.5522" x2="393.2349" y2="67.5522">
		<stop  offset="0" style="stop-color:#FFFCE8"/>
		<stop  offset="0.1517" style="stop-color:#CF9A2A"/>
		<stop  offset="0.2528" style="stop-color:#FFFDE9"/>
		<stop  offset="0.2978" style="stop-color:#DEBD74"/>
		<stop  offset="0.3596" style="stop-color:#F2D98A"/>
		<stop  offset="0.4157" style="stop-color:#D8A63F"/>
		<stop  offset="0.5072" style="stop-color:#FFDD91"/>
		<stop  offset="0.5891" style="stop-color:#FFFACB"/>
		<stop  offset="0.788" style="stop-color:#D8A128"/>
		<stop  offset="0.9437" style="stop-color:#E6E3BB"/>
		<stop  offset="1" style="stop-color:#FFF0C6"/>
	</linearGradient>
	<path fill="url(#SVGID_6_)" d="M297.4,70.7c-3.3-0.9-7-1.4-10.6-1.8l-8-18.5h-5.1l-14.9,34.3h6l4.8-11.1c2.3-0.4,7.2-1.1,12.7-1.3
		l5.4,12.4h6l-5.4-12.5c3,0.1,6,0.3,8.7,0.9c0.8,0.2,1.5-0.1,1.7-0.8C298.8,71.5,298.2,70.9,297.4,70.7z M271.8,68.5l4.4-10.4
		l4.4,10.4C277.1,68.4,273.9,68.4,271.8,68.5z"/>
	<linearGradient id="SVGID_7_" gradientUnits="userSpaceOnUse" x1="-45.8739" y1="53.5855" x2="393.2349" y2="53.5855">
		<stop  offset="0" style="stop-color:#FFFCE8"/>
		<stop  offset="0.1517" style="stop-color:#CF9A2A"/>
		<stop  offset="0.2528" style="stop-color:#FFFDE9"/>
		<stop  offset="0.2978" style="stop-color:#DEBD74"/>
		<stop  offset="0.3596" style="stop-color:#F2D98A"/>
		<stop  offset="0.4157" style="stop-color:#D8A63F"/>
		<stop  offset="0.5072" style="stop-color:#FFDD91"/>
		<stop  offset="0.5891" style="stop-color:#FFFACB"/>
		<stop  offset="0.788" style="stop-color:#D8A128"/>
		<stop  offset="0.9437" style="stop-color:#E6E3BB"/>
		<stop  offset="1" style="stop-color:#FFF0C6"/>
	</linearGradient>
	<path fill="url(#SVGID_7_)" d="M88,5.8c-0.3-0.4-0.9-0.9-1.7-1.5c-1.2-0.8-2.6-1.5-4.1-2c-1.5-0.4-3.1-0.7-4.6-0.9
		c-0.8-0.1-1.6-0.2-2.4-0.2c-0.8,0-1.6,0-2.4,0c-0.8,0-1.6,0-2.4,0.1c-0.8,0.1-1.6,0.1-2.4,0.2c-1.7,0.2-3.4,0.5-5,0.8
		c-1.6,0.4-3.2,0.8-5,1.3c-3.3,1-6.5,2.4-9.8,4.1L47.9,8c-0.2,0.1-0.4,0.3-0.6,0.5c-0.2,0.1-0.4,0.2-0.6,0.3C46.4,8.9,46.2,9,46,9.1
		c-0.5,0.2-0.9,0.4-1.3,0.7c-0.4,0.3-0.7,0.5-1.1,0.7c-0.8,0.5-1.6,1-2.4,1.6c-0.8,0.6-1.6,1.2-2.4,1.9l-0.6,0.5l-0.5,0.5l-0.6,0.6
		c-0.2,0.2-0.4,0.4-0.6,0.5l-0.5,0.6L35.6,17c-0.2,0.2-0.4,0.4-0.5,0.6c-0.2,0.2-0.3,0.4-0.5,0.6c-0.3,0.5-0.6,1-0.9,1.4
		c-0.3,0.4-0.6,0.9-0.9,1.4c-0.2,0.5-0.4,1-0.7,1.5c-0.3,0.5-0.5,1-0.7,1.5c-0.4,1-0.7,2.2-0.9,3.5c0,0.3,0,0.6-0.1,0.9
		c-0.1,0.3-0.1,0.6-0.1,0.9c0,0.8,0.1,1.4,0.2,1.8c0,0.6,0,1.2,0.2,1.8c0.1,0.6,0.3,1.2,0.5,1.8c0.2,0.5,0.4,1,0.6,1.6
		c0.2,0.6,0.5,1.1,0.8,1.6c0.1,0.4,0.4,0.9,0.8,1.5c0.1,0.4,0.4,0.9,0.8,1.5c0.3,0.5,0.6,0.9,1,1.3c0.4,0.4,0.7,0.8,1,1.3
		c0.3,0.2,0.7,0.6,1.1,1.2c0.2,0.2,0.4,0.4,0.5,0.5c0.2,0.2,0.3,0.3,0.5,0.5c0.4,0.4,0.8,0.8,1.1,1.1c0.3,0.4,0.7,0.7,1.1,1.1
		c1.4,1.4,2.8,2.8,4.2,4.1c1.4,1.3,2.7,2.7,4,4.1l3.7,4.1c0.2,0.4,0.4,0.8,0.7,1.1c0.3,0.4,0.5,0.7,0.7,1c0.2,0.4,0.4,0.8,0.7,1.1
		c0.3,0.4,0.5,0.7,0.7,1c2,2.9,3.1,5.9,3.2,8.8c0.1,1.5-0.1,3.1-0.5,4.7c-0.1,0.4-0.2,0.8-0.2,1.2c-0.1,0.4-0.2,0.8-0.4,1.2
		l-0.3,0.6c0,0.1,0,0.2-0.1,0.3c-0.1,0.1-0.1,0.2-0.1,0.3c-0.1,0.1-0.2,0.2-0.2,0.3c0,0.1-0.1,0.2-0.2,0.3c0,0.2-0.1,0.4-0.3,0.6
		v0.3c-0.1,0-0.2,0.1-0.2,0.2v0.2l-0.3,0.6c-0.2,0.2-0.3,0.4-0.4,0.5c-0.1,0.2-0.1,0.3-0.2,0.5c-0.2,0.4-0.4,0.8-0.7,1.1
		c-0.3,0.4-0.5,0.7-0.8,1.1c-0.5,0.8-1,1.5-1.6,2.1c-0.6,0.6-1.1,1.3-1.8,2l-0.9,0.9c-0.4,0.4-0.8,0.7-1.1,0.8
		c-0.4,0.4-0.8,0.7-1.1,0.8c-0.4,0.4-0.8,0.7-1.1,0.8c-1.5,1-3,1.9-4.4,2.6c-3,1.5-6.1,2.7-9.5,3.6c-1.6,0.5-3.2,0.9-4.7,1.1
		c-1.5,0.2-3.1,0.4-4.6,0.6c-1.5,0.2-3,0.3-4.5,0.2c-1.5,0-2.9-0.2-4.4-0.4c-0.7-0.2-1.4-0.4-2.1-0.5c-0.2,0-0.4-0.1-0.6-0.1
		c-3.4-1.6-4.6-3.1-5-4.3c0-0.1,0-0.1,0-0.2C6.3,97,6.1,96.5,5.9,96c0-0.1,0-0.2,0-0.3c-0.1-3,3-6.2,9.2-9.5l0,0
		c4.1-2.2,9-4.2,14.8-5.9l0,0c0,0,0,0,0.1,0c1.6-0.5,3.2-0.9,4.9-1.3c4.5-1.2,14.8-3.4,15.1-3.6c0.6-0.3,1-1.6,0.7-2.1
		c-0.3-0.5-1.3-0.8-3.4-0.6s-11.6,1.9-12.5,2c-0.8,0.1-12,2.8-16.8,4.5c-2,0.8-3.9,1.6-5.7,2.4C5,84.8,1.3,89.1,1.5,94.3
		c0.1,3.7,1.2,6.5,4.5,8.5c0.2,0.2,0.5,0.3,0.8,0.5c0.4,0.3,1.1,0.7,2.1,1.1c0.7,0.2,1.4,0.4,2.1,0.6c0.5,0.1,1.1,0.3,1.6,0.4
		c0,0,0.1,0,0.1,0l0,0c0.2,0,0.3,0.1,0.5,0.1c1.5,0.3,3.1,0.5,4.7,0.5c1.6,0,3.2,0,4.8-0.2c3.4-0.3,6.7-0.9,10.1-1.8
		c1.6-0.5,3.3-1.1,4.9-1.7c1.6-0.6,3.3-1.3,5-2.1c0.8-0.4,1.6-0.8,2.4-1.3c0.8-0.5,1.6-0.9,2.4-1.4c0.2-0.2,0.4-0.4,0.6-0.5
		c0.2-0.1,0.4-0.2,0.6-0.3c0.2-0.2,0.4-0.4,0.5-0.5c0.2-0.1,0.3-0.3,0.5-0.5c0.2-0.2,0.4-0.4,0.6-0.5c0.2-0.1,0.4-0.2,0.6-0.3
		c0.2-0.2,0.4-0.4,0.5-0.5c0.2-0.1,0.3-0.3,0.5-0.5c0.8-0.5,1.6-1.1,2.3-1.7c0.7-0.7,1.5-1.3,2.3-2c0.3-0.4,0.6-0.8,1-1.1
		c0.4-0.4,0.7-0.7,1-1.1c0.2-0.2,0.5-0.6,0.9-1.2l0.5-0.6h0.2V86l0.3-0.5c0.2-0.2,0.4-0.4,0.5-0.6c0.1-0.1,0.2-0.2,0.2-0.3
		c0.1-0.1,0.1-0.2,0.2-0.3c0.1-0.1,0.2-0.2,0.2-0.3c0-0.1,0.1-0.2,0.2-0.3l0.5-0.8c0.2-0.5,0.4-1,0.7-1.4c0.3-0.5,0.5-0.9,0.7-1.4
		c0.5-1.1,0.9-2.1,1.2-3c0.2-0.8,0.4-1.9,0.6-3.3c0.3-2.5,0.3-4.9-0.2-7c-0.5-2.4-1.3-4.6-2.3-6.5c-0.2-0.5-0.5-1-0.8-1.4
		c-0.3-0.5-0.6-0.9-0.9-1.4c-0.2-0.2-0.4-0.4-0.5-0.6c-0.2-0.2-0.3-0.4-0.5-0.6l-0.9-1.4c-0.7-0.8-1.4-1.6-2.1-2.4
		c-0.7-0.8-1.4-1.5-2.1-2.4c-1.4-1.4-2.9-2.8-4.3-4.2c-1.4-1.4-2.8-2.8-4.1-4.2c-0.3-0.3-0.6-0.6-0.9-1c-0.3-0.4-0.6-0.7-0.9-1
		c-0.2-0.2-0.4-0.4-0.5-0.5c-0.1-0.2-0.3-0.3-0.5-0.5c-0.4-0.4-0.7-0.8-0.9-1.1c-0.2-0.3-0.5-0.6-0.8-1c-0.3-0.4-0.6-0.7-0.8-1
		c-0.2-0.4-0.5-0.8-0.8-1.1c-0.3-0.3-0.6-0.6-0.8-0.9c-0.4-0.5-0.8-1.2-1.1-2l-0.9-1.8c0-0.2,0-0.4-0.1-0.5
		c-0.1-0.2-0.1-0.3-0.1-0.5c-0.1-0.2-0.2-0.5-0.2-0.9v-2.1c0.3-1.7,0.8-3.2,1.5-4.6c0.1-0.2,0.2-0.4,0.3-0.5
		c0.1-0.2,0.2-0.3,0.3-0.5l0.3-0.5l0.3-0.6l0.5-0.5l0.3-0.6l0.5-0.5l0.3-0.5c0.9-1.2,2.1-2.5,3.7-3.8c0.3-0.3,0.6-0.6,0.9-0.8
		c0.3-0.3,0.7-0.5,1.1-0.8c0.1-0.1,0.2-0.2,0.2-0.2c0.1,0,0.1,0,0.2-0.2c0.2-0.2,0.4-0.3,0.6-0.3c0.2-0.2,0.4-0.3,0.5-0.4
		c0.2,0,0.3-0.1,0.5-0.2c3.3-1.8,6.4-3.1,9.3-3.9c1.5-0.5,3.1-0.9,4.7-1.2c1.6-0.3,3.1-0.6,4.7-0.8c0.8-0.1,1.6-0.2,2.3-0.2
		c0.7,0,1.5-0.1,2.3-0.1c0.7,0,1.4,0,2.1,0c0.7,0,1.4,0.1,2.1,0.2c0.7,0.1,1.4,0.2,2.1,0.3c0.7,0.1,1.3,0.3,1.9,0.5
		c1.3,0.5,2.4,1,3.4,1.5C84.9,6.9,85,7,85.2,7.2c0.2,0.2,0.3,0.3,0.5,0.5c0.3,0.2,0.6,0.6,0.8,1.2c0.3,0.9,0.3,1.8,0,2.7
		c-0.3,0.8-0.7,1.7-1.2,2.6l-1.8,2.3c-0.7,0.8-1.4,1.5-2.1,2c-0.7,0.6-1.3,1.1-1.9,1.6c-1.3,1.1-2.5,2-3.5,2.7
		c-1,0.7-1.9,1.3-2.7,1.8c-0.4,0.2-0.7,0.4-1,0.5c-0.3,0.2-0.5,0.3-0.7,0.5c-0.2,0.1-0.4,0.2-0.5,0.2c-0.1,0-0.2,0.1-0.2,0.2
		l-0.3,0.3c-0.7,0.5-1.1,1.2-1.2,2c-0.1,0.8,0.1,1.6,0.6,2.3c0.5,0.7,1.2,1.1,2.1,1.1c0.9,0.1,1.7-0.2,2.4-0.7l0.5-0.5
		c0.6-0.4,1.2-0.9,1.7-1.4c0.7-0.6,1.6-1.4,2.7-2.3c1-0.9,2.1-2,3.4-3.3c0.7-0.6,1.4-1.3,2-2c0.6-0.8,1.3-1.6,2-2.5
		c0.3-0.5,0.6-1,0.9-1.4c0.3-0.5,0.6-1,0.9-1.6c0.6-1,1.1-2.2,1.4-3.6c0.1-0.5,0.2-1.3,0.2-2.3c-0.2-1-0.4-1.8-0.6-2.3
		C89.1,7.1,88.6,6.4,88,5.8z"/>
</g>
<g>
	<linearGradient id="SVGID_8_" gradientUnits="userSpaceOnUse" x1="326.9155" y1="100.8821" x2="-49.637" y2="100.8821">
		<stop  offset="0" style="stop-color:#FFFDE9"/>
		<stop  offset="0.1517" style="stop-color:#CF9A2A"/>
		<stop  offset="0.2528" style="stop-color:#FFFCE8"/>
		<stop  offset="0.2978" style="stop-color:#DEBD74"/>
		<stop  offset="0.3596" style="stop-color:#F2D98A"/>
		<stop  offset="0.4157" style="stop-color:#D8A63F"/>
		<stop  offset="0.5072" style="stop-color:#FFDD91"/>
		<stop  offset="0.5891" style="stop-color:#FFFACB"/>
		<stop  offset="0.788" style="stop-color:#D8A128"/>
		<stop  offset="0.9437" style="stop-color:#E6E3BB"/>
		<stop  offset="1" style="stop-color:#FFF0C6"/>
	</linearGradient>
	<circle fill="url(#SVGID_8_)" cx="194" cy="100.9" r="1.4"/>
	<linearGradient id="SVGID_9_" gradientUnits="userSpaceOnUse" x1="326.9155" y1="100.8425" x2="-49.637" y2="100.8425">
		<stop  offset="0" style="stop-color:#FFFDE9"/>
		<stop  offset="0.1517" style="stop-color:#CF9A2A"/>
		<stop  offset="0.2528" style="stop-color:#FFFCE8"/>
		<stop  offset="0.2978" style="stop-color:#DEBD74"/>
		<stop  offset="0.3596" style="stop-color:#F2D98A"/>
		<stop  offset="0.4157" style="stop-color:#D8A63F"/>
		<stop  offset="0.5072" style="stop-color:#FFDD91"/>
		<stop  offset="0.5891" style="stop-color:#FFFACB"/>
		<stop  offset="0.788" style="stop-color:#D8A128"/>
		<stop  offset="0.9437" style="stop-color:#E6E3BB"/>
		<stop  offset="1" style="stop-color:#FFF0C6"/>
	</linearGradient>
	<path fill="url(#SVGID_9_)" d="M98.6,97.3c1.3,0,2.6,0.5,3.4,1.3l0,0h2.9l0-0.1c-1-1.9-3.5-3.2-6.3-3.2c-3.7,0-6.8,2.5-6.8,5.5
		c0,3.1,3.1,5.5,6.9,5.5c2.7,0,5.2-1.3,6.2-3.1l0.1-0.1h-3l0,0c-0.9,0.8-2.1,1.2-3.3,1.2c-2.3,0-4.3-1.6-4.3-3.5
		C94.4,98.9,96.3,97.3,98.6,97.3z"/>
	<linearGradient id="SVGID_10_" gradientUnits="userSpaceOnUse" x1="326.9155" y1="100.8144" x2="-49.637" y2="100.8144">
		<stop  offset="0" style="stop-color:#FFFDE9"/>
		<stop  offset="0.1517" style="stop-color:#CF9A2A"/>
		<stop  offset="0.2528" style="stop-color:#FFFCE8"/>
		<stop  offset="0.2978" style="stop-color:#DEBD74"/>
		<stop  offset="0.3596" style="stop-color:#F2D98A"/>
		<stop  offset="0.4157" style="stop-color:#D8A63F"/>
		<stop  offset="0.5072" style="stop-color:#FFDD91"/>
		<stop  offset="0.5891" style="stop-color:#FFFACB"/>
		<stop  offset="0.788" style="stop-color:#D8A128"/>
		<stop  offset="0.9437" style="stop-color:#E6E3BB"/>
		<stop  offset="1" style="stop-color:#FFF0C6"/>
	</linearGradient>
	<path fill="url(#SVGID_10_)" d="M116.6,95.5h-2l-5.5,10.5l-0.1,0.1h2.8l1.5-2.7h4.6l1.4,2.7l0,0h2.8L116.6,95.5L116.6,95.5z
		 M114.3,101.4l1.3-2.9l1.3,2.9H114.3z"/>
	<linearGradient id="SVGID_11_" gradientUnits="userSpaceOnUse" x1="326.9155" y1="100.8425" x2="-49.637" y2="100.8425">
		<stop  offset="0" style="stop-color:#FFFDE9"/>
		<stop  offset="0.1517" style="stop-color:#CF9A2A"/>
		<stop  offset="0.2528" style="stop-color:#FFFCE8"/>
		<stop  offset="0.2978" style="stop-color:#DEBD74"/>
		<stop  offset="0.3596" style="stop-color:#F2D98A"/>
		<stop  offset="0.4157" style="stop-color:#D8A63F"/>
		<stop  offset="0.5072" style="stop-color:#FFDD91"/>
		<stop  offset="0.5891" style="stop-color:#FFFACB"/>
		<stop  offset="0.788" style="stop-color:#D8A128"/>
		<stop  offset="0.9437" style="stop-color:#E6E3BB"/>
		<stop  offset="1" style="stop-color:#FFF0C6"/>
	</linearGradient>
	<path fill="url(#SVGID_11_)" d="M134.2,100.6c-0.7-0.5-1.5-0.7-2.3-0.9l-0.3-0.1c-0.8-0.2-1.6-0.5-1.6-1.2c0-0.3,0.1-0.5,0.3-0.7
		c0.2-0.2,0.6-0.4,1-0.4c0.8,0,1.4,0.4,1.4,1l0,0.1h2.6l0-0.1c0-0.6-0.3-1.3-0.8-1.8c-0.8-0.8-1.9-1.2-3.1-1.2c-2.2,0-4,1.3-4,3
		c0,0.7,0.4,1.5,1.1,2.1c0.7,0.6,1.5,0.8,2.3,1c1,0.3,2.3,0.6,2.3,1.7c0,0.7-0.7,1.2-1.7,1.2c-0.9,0-1.8-0.4-1.8-1.2V103h-2.7v0.1
		c0,1.8,1.9,3.3,4.3,3.3c2.4,0,4.4-1.5,4.4-3.4C135.6,101.9,135.1,101.2,134.2,100.6z"/>
	<linearGradient id="SVGID_12_" gradientUnits="userSpaceOnUse" x1="326.9155" y1="100.8144" x2="-49.637" y2="100.8144">
		<stop  offset="0" style="stop-color:#FFFDE9"/>
		<stop  offset="0.1517" style="stop-color:#CF9A2A"/>
		<stop  offset="0.2528" style="stop-color:#FFFCE8"/>
		<stop  offset="0.2978" style="stop-color:#DEBD74"/>
		<stop  offset="0.3596" style="stop-color:#F2D98A"/>
		<stop  offset="0.4157" style="stop-color:#D8A63F"/>
		<stop  offset="0.5072" style="stop-color:#FFDD91"/>
		<stop  offset="0.5891" style="stop-color:#FFFACB"/>
		<stop  offset="0.788" style="stop-color:#D8A128"/>
		<stop  offset="0.9437" style="stop-color:#E6E3BB"/>
		<stop  offset="1" style="stop-color:#FFF0C6"/>
	</linearGradient>
	<rect x="141.6" y="95.5" fill="url(#SVGID_12_)" width="2.6" height="10.6"/>
	<linearGradient id="SVGID_13_" gradientUnits="userSpaceOnUse" x1="326.9155" y1="100.8144" x2="-49.637" y2="100.8144">
		<stop  offset="0" style="stop-color:#FFFDE9"/>
		<stop  offset="0.1517" style="stop-color:#CF9A2A"/>
		<stop  offset="0.2528" style="stop-color:#FFFCE8"/>
		<stop  offset="0.2978" style="stop-color:#DEBD74"/>
		<stop  offset="0.3596" style="stop-color:#F2D98A"/>
		<stop  offset="0.4157" style="stop-color:#D8A63F"/>
		<stop  offset="0.5072" style="stop-color:#FFDD91"/>
		<stop  offset="0.5891" style="stop-color:#FFFACB"/>
		<stop  offset="0.788" style="stop-color:#D8A128"/>
		<stop  offset="0.9437" style="stop-color:#E6E3BB"/>
		<stop  offset="1" style="stop-color:#FFF0C6"/>
	</linearGradient>
	<polygon fill="url(#SVGID_13_)" points="159.4,103 154,95.6 153.9,95.5 151.1,95.5 151.1,106.1 153.7,106.1 153.7,98.6 
		159.1,106.1 159.1,106.1 161.9,106.1 161.9,95.5 159.4,95.5 	"/>
	<linearGradient id="SVGID_14_" gradientUnits="userSpaceOnUse" x1="326.9155" y1="100.8425" x2="-49.637" y2="100.8425">
		<stop  offset="0" style="stop-color:#FFFDE9"/>
		<stop  offset="0.1517" style="stop-color:#CF9A2A"/>
		<stop  offset="0.2528" style="stop-color:#FFFCE8"/>
		<stop  offset="0.2978" style="stop-color:#DEBD74"/>
		<stop  offset="0.3596" style="stop-color:#F2D98A"/>
		<stop  offset="0.4157" style="stop-color:#D8A63F"/>
		<stop  offset="0.5072" style="stop-color:#FFDD91"/>
		<stop  offset="0.5891" style="stop-color:#FFFACB"/>
		<stop  offset="0.788" style="stop-color:#D8A128"/>
		<stop  offset="0.9437" style="stop-color:#E6E3BB"/>
		<stop  offset="1" style="stop-color:#FFF0C6"/>
	</linearGradient>
	<path fill="url(#SVGID_14_)" d="M175.1,95.3c-3.8,0-6.9,2.5-6.9,5.5c0,3,3.1,5.5,6.9,5.5c2.6,0,4.9-1.2,6.1-2.9
		c0.5-0.8,0.8-1.7,0.8-2.6c0-1-0.3-1.8-0.8-2.6C180,96.5,177.7,95.3,175.1,95.3z M175.1,104.3c-2.4,0-4.4-1.6-4.4-3.5
		c0-1.9,2-3.5,4.4-3.5s4.4,1.6,4.4,3.5C179.4,102.7,177.4,104.3,175.1,104.3z"/>
	<linearGradient id="SVGID_15_" gradientUnits="userSpaceOnUse" x1="326.9155" y1="100.8144" x2="-49.637" y2="100.8144">
		<stop  offset="0" style="stop-color:#FFFDE9"/>
		<stop  offset="0.1517" style="stop-color:#CF9A2A"/>
		<stop  offset="0.2528" style="stop-color:#FFFCE8"/>
		<stop  offset="0.2978" style="stop-color:#DEBD74"/>
		<stop  offset="0.3596" style="stop-color:#F2D98A"/>
		<stop  offset="0.4157" style="stop-color:#D8A63F"/>
		<stop  offset="0.5072" style="stop-color:#FFDD91"/>
		<stop  offset="0.5891" style="stop-color:#FFFACB"/>
		<stop  offset="0.788" style="stop-color:#D8A128"/>
		<stop  offset="0.9437" style="stop-color:#E6E3BB"/>
		<stop  offset="1" style="stop-color:#FFF0C6"/>
	</linearGradient>
	<polygon fill="url(#SVGID_15_)" points="214.4,99.7 209.8,99.7 209.8,95.5 207.2,95.5 207.2,106.1 209.8,106.1 209.8,101.7 
		214.4,101.7 214.4,106.1 217,106.1 217,95.5 214.4,95.5 	"/>
	<linearGradient id="SVGID_16_" gradientUnits="userSpaceOnUse" x1="326.9155" y1="100.8425" x2="-49.637" y2="100.8425">
		<stop  offset="0" style="stop-color:#FFFDE9"/>
		<stop  offset="0.1517" style="stop-color:#CF9A2A"/>
		<stop  offset="0.2528" style="stop-color:#FFFCE8"/>
		<stop  offset="0.2978" style="stop-color:#DEBD74"/>
		<stop  offset="0.3596" style="stop-color:#F2D98A"/>
		<stop  offset="0.4157" style="stop-color:#D8A63F"/>
		<stop  offset="0.5072" style="stop-color:#FFDD91"/>
		<stop  offset="0.5891" style="stop-color:#FFFACB"/>
		<stop  offset="0.788" style="stop-color:#D8A128"/>
		<stop  offset="0.9437" style="stop-color:#E6E3BB"/>
		<stop  offset="1" style="stop-color:#FFF0C6"/>
	</linearGradient>
	<path fill="url(#SVGID_16_)" d="M229.4,95.3c-3.8,0-6.9,2.5-6.9,5.5c0,3,3.1,5.5,6.9,5.5c3.8,0,6.9-2.5,6.9-5.5
		C236.4,97.8,233.3,95.3,229.4,95.3z M229.4,104.3c-2.4,0-4.4-1.6-4.4-3.5c0-1.9,2-3.5,4.4-3.5c2.4,0,4.4,1.6,4.4,3.5
		C233.8,102.7,231.8,104.3,229.4,104.3z"/>
	<linearGradient id="SVGID_17_" gradientUnits="userSpaceOnUse" x1="326.9155" y1="100.8144" x2="-49.637" y2="100.8144">
		<stop  offset="0" style="stop-color:#FFFDE9"/>
		<stop  offset="0.1517" style="stop-color:#CF9A2A"/>
		<stop  offset="0.2528" style="stop-color:#FFFCE8"/>
		<stop  offset="0.2978" style="stop-color:#DEBD74"/>
		<stop  offset="0.3596" style="stop-color:#F2D98A"/>
		<stop  offset="0.4157" style="stop-color:#D8A63F"/>
		<stop  offset="0.5072" style="stop-color:#FFDD91"/>
		<stop  offset="0.5891" style="stop-color:#FFFACB"/>
		<stop  offset="0.788" style="stop-color:#D8A128"/>
		<stop  offset="0.9437" style="stop-color:#E6E3BB"/>
		<stop  offset="1" style="stop-color:#FFF0C6"/>
	</linearGradient>
	<polygon fill="url(#SVGID_17_)" points="240.4,97.5 242.8,97.5 242.8,106.1 245.4,106.1 245.4,97.5 247.9,97.5 247.9,95.5 
		240.4,95.5 	"/>
	<linearGradient id="SVGID_18_" gradientUnits="userSpaceOnUse" x1="326.9155" y1="100.8144" x2="-49.637" y2="100.8144">
		<stop  offset="0" style="stop-color:#FFFDE9"/>
		<stop  offset="0.1517" style="stop-color:#CF9A2A"/>
		<stop  offset="0.2528" style="stop-color:#FFFCE8"/>
		<stop  offset="0.2978" style="stop-color:#DEBD74"/>
		<stop  offset="0.3596" style="stop-color:#F2D98A"/>
		<stop  offset="0.4157" style="stop-color:#D8A63F"/>
		<stop  offset="0.5072" style="stop-color:#FFDD91"/>
		<stop  offset="0.5891" style="stop-color:#FFFACB"/>
		<stop  offset="0.788" style="stop-color:#D8A128"/>
		<stop  offset="0.9437" style="stop-color:#E6E3BB"/>
		<stop  offset="1" style="stop-color:#FFF0C6"/>
	</linearGradient>
	<polygon fill="url(#SVGID_18_)" points="254.1,106.1 261.3,106.1 261.3,104.1 256.7,104.1 256.7,101.8 261.1,101.8 261.1,99.8 
		256.7,99.8 256.7,97.5 261.3,97.5 261.3,95.5 254.1,95.5 	"/>
	<linearGradient id="SVGID_19_" gradientUnits="userSpaceOnUse" x1="326.9155" y1="100.8144" x2="-49.637" y2="100.8144">
		<stop  offset="0" style="stop-color:#FFFDE9"/>
		<stop  offset="0.1517" style="stop-color:#CF9A2A"/>
		<stop  offset="0.2528" style="stop-color:#FFFCE8"/>
		<stop  offset="0.2978" style="stop-color:#DEBD74"/>
		<stop  offset="0.3596" style="stop-color:#F2D98A"/>
		<stop  offset="0.4157" style="stop-color:#D8A63F"/>
		<stop  offset="0.5072" style="stop-color:#FFDD91"/>
		<stop  offset="0.5891" style="stop-color:#FFFACB"/>
		<stop  offset="0.788" style="stop-color:#D8A128"/>
		<stop  offset="0.9437" style="stop-color:#E6E3BB"/>
		<stop  offset="1" style="stop-color:#FFF0C6"/>
	</linearGradient>
	<polygon fill="url(#SVGID_19_)" points="271.1,95.5 268.5,95.5 268.5,106.1 275.1,106.1 275.1,104.1 271.1,104.1 	"/>
</g>
</svg>
